<svg id="visual" viewBox="0 0 960 540" width="960" height="540" xmlns="http://www.w3.org/2000/svg" xmlns:xlink="http://www.w3.org/1999/xlink" version="1.1"><rect x="0" y="0" width="960" height="540" fill="#FFFFFF"></rect><path d="M539 540L619 540L619 463L673 463L673 386L545 386L545 309L622 309L622 231L588 231L588 154L675 154L675 77L621 77L621 0L960 0L960 77L960 77L960 154L960 154L960 231L960 231L960 309L960 309L960 386L960 386L960 463L960 463L960 540L960 540Z" fill="#047ecf"></path><path d="M722 540L847 540L847 463L820 463L820 386L791 386L791 309L827 309L827 231L853 231L853 154L680 154L680 77L851 77L851 0L960 0L960 77L960 77L960 154L960 154L960 231L960 231L960 309L960 309L960 386L960 386L960 463L960 463L960 540L960 540Z" fill="#0393f5"></path></svg>