<?xml version="1.0" standalone="no"?>
<!DOCTYPE svg PUBLIC "-//W3C//DTD SVG 20010904//EN"
 "http://www.w3.org/TR/2001/REC-SVG-20010904/DTD/svg10.dtd">
<svg version="1.0" xmlns="http://www.w3.org/2000/svg"
 width="700.000000pt" height="700.000000pt" viewBox="0 0 700.000000 700.000000"
 preserveAspectRatio="xMidYMid meet">
<metadata>
Created by potrace 1.14, written by Peter Selinger 2001-2017
</metadata>
<g transform="translate(0.000000,700.000000) scale(0.100000,-0.100000)"
fill="#000000" stroke="none">
<path d="M2595 6993 c-263 -4 -661 -23 -795 -39 -644 -75 -1122 -347 -1436
-819 -171 -257 -273 -557 -318 -930 -34 -281 -40 -569 -41 -1700 0 -1386 12
-1654 90 -1999 153 -679 626 -1188 1281 -1375 382 -110 637 -125 2114 -125
1334 -1 1620 11 1957 79 731 148 1264 652 1443 1365 92 367 104 603 104 2050
0 1358 -11 1621 -81 1955 -87 415 -283 763 -578 1026 -331 295 -734 446 -1305
489 -328 24 -1558 36 -2435 23z m2345 -646 c422 -42 608 -91 805 -211 266
-162 453 -416 531 -723 27 -107 57 -315 76 -523 19 -208 19 -2572 0 -2780 -19
-210 -49 -416 -77 -526 -106 -418 -429 -746 -840 -853 -104 -28 -220 -47 -383
-65 -293 -33 -541 -38 -1692 -33 -945 3 -1162 7 -1295 20 -292 29 -484 65
-613 114 -288 108 -541 351 -665 636 -47 110 -81 248 -106 432 -44 316 -46
393 -46 1675 0 1101 2 1244 18 1410 48 500 111 705 283 930 97 128 269 268
419 342 186 93 480 145 970 172 33 1 598 2 1255 1 1021 -2 1219 -4 1360 -18z"/>
<path d="M5291 5779 c-74 -14 -164 -63 -217 -117 -221 -225 -128 -599 173
-692 242 -75 487 77 534 331 39 216 -118 438 -340 479 -61 11 -88 11 -150 -1z"/>
<path d="M3285 5284 c-117 -18 -258 -51 -359 -85 -612 -207 -1058 -718 -1188
-1359 -20 -100 -23 -144 -23 -340 0 -196 3 -240 23 -340 147 -725 688 -1268
1418 -1422 97 -20 136 -23 349 -23 211 1 252 3 344 23 372 81 669 241 924 498
305 307 489 712 516 1140 33 528 -150 1020 -516 1388 -253 255 -553 417 -919
496 -81 18 -140 23 -319 25 -121 2 -233 1 -250 -1z m445 -640 c402 -83 744
-381 873 -764 46 -135 60 -224 60 -380 0 -314 -104 -575 -318 -799 -213 -223
-456 -337 -780 -366 -205 -19 -482 53 -684 177 -117 72 -297 252 -369 369
-235 383 -235 855 0 1238 72 117 252 297 369 369 255 157 566 214 849 156z"/>
</g>
</svg>
